# xmcd
#
# Track frame offsets: 
#        150
#        21212
#        42907
#        48750
#        67217
#        89695
#        117450
#        140225
#        161575
#        181965
#        212100
#        248525
#        271425
#
# Disc length: 3918 seconds
#
# Revision: 10
# Processed by: cddbd v1.5.2PL0 Copyright (c) Steve Scherf et al.
# Submitted via: ExactAudioCopy v1.3
#
DISCID=c30f4c0d
DTITLE=Herbie Hancock - Dis Is Da Drum
DYEAR=1994
DGENRE=Fusion
TTITLE0=Call It 95
TTITLE1=Dis Is Da Drum
TTITLE2=Shooz
TTITLE3=The Melody (On The Deuce By 44)
TTITLE4=Mojuba
TTITLE5=Butterfly
TTITLE6=Ju Ju
TTITLE7=Hump
TTITLE8=Come And See Me
TTITLE9=Rubber Soul
TTITLE10=Bo Ba Be Da
TTITLE11=Call It 95 (Remix)
TTITLE12=Mojuba (Remix)
EXTD=YEAR: 1994
EXTT0=
EXTT1=
EXTT2=
EXTT3=
EXTT4=
EXTT5=
EXTT6=
EXTT7=
EXTT8=
EXTT9=
EXTT10=
EXTT11=
EXTT12=
PLAYORDER=
